<?xml version="1.0" encoding="iso-8859-1"?>
<!-- Generator: Adobe Illustrator 16.0.0, SVG Export Plug-In . SVG Version: 6.00 Build 0)  -->
<!DOCTYPE svg PUBLIC "-//W3C//DTD SVG 1.1//EN" "http://www.w3.org/Graphics/SVG/1.1/DTD/svg11.dtd">
<svg version="1.1" id="Capa_1" xmlns="http://www.w3.org/2000/svg" xmlns:xlink="http://www.w3.org/1999/xlink" x="0px" y="0px"
	 width="612px" height="612px" viewBox="0 0 612 612" style="enable-background:new 0 0 612 612;" xml:space="preserve">
<g>
	<g id="Sun">
		<g>
			<path d="M114.75,286.875H0v38.25h114.75V286.875z M184.614,157.628l-80.937-80.937l-26.985,26.985l80.937,80.937L184.614,157.628
				z M325.125,0h-38.25v114.75h38.25V0z M535.309,103.677l-26.985-26.985l-80.937,80.937l26.985,26.985L535.309,103.677z
				 M497.25,286.875v38.25H612v-38.25H497.25z M306,153c-84.494,0-153,68.506-153,153s68.506,153,153,153s153-68.506,153-153
				S390.494,153,306,153z M306,420.75c-63.38,0-114.75-51.37-114.75-114.75c0-63.38,51.37-114.75,114.75-114.75
				c63.38,0,114.75,51.37,114.75,114.75C420.75,369.38,369.38,420.75,306,420.75z M427.387,454.372l80.937,80.937l26.985-26.985
				l-80.937-80.937L427.387,454.372z M76.691,508.323l26.985,26.985l80.937-80.937l-26.985-26.985L76.691,508.323z M286.875,612
				h38.25V497.25h-38.25V612z"/>
		</g>
	</g>
</g>
<g>
</g>
<g>
</g>
<g>
</g>
<g>
</g>
<g>
</g>
<g>
</g>
<g>
</g>
<g>
</g>
<g>
</g>
<g>
</g>
<g>
</g>
<g>
</g>
<g>
</g>
<g>
</g>
<g>
</g>
</svg>
